PathFileType	4	(X/Y/Z)	C:/Users/opensim2020/Desktop/walking_exp_matlab/subject02_walking06_straight_01.trc																																																																																																																									
DataRate	CameraRate	NumFrames	NumMarkers	Units	OrigDataRate	OrigDataStartFrame	OrigNumFrames																																																																																																																					
100	100	6	41	mm	100	934	205																																																																																																																					
Frame#	Time	LFHD			RFHD			LBHD			RBHD			C7			T10			CLAV			STRN			RBAK			LSHO			LUPA			LELB			LFRM			LWRA			LWRB			LFIN			RSHO			RUPA			RELB			RFRM			RWRA			RWRB			RFIN			LASI			RASI			LPSI			RPSI			LTHI			LKNE			LTIB			LANK			LHEE			LTOE			RTHI			RKNE			RTIB			RANK			RHEE			RTOE			*39			*40		
		X1	Y1	Z1	X2	Y2	Z2	X3	Y3	Z3	X4	Y4	Z4	X5	Y5	Z5	X6	Y6	Z6	X7	Y7	Z7	X8	Y8	Z8	X9	Y9	Z9	X10	Y10	Z10	X11	Y11	Z11	X12	Y12	Z12	X13	Y13	Z13	X14	Y14	Z14	X15	Y15	Z15	X16	Y16	Z16	X17	Y17	Z17	X18	Y18	Z18	X19	Y19	Z19	X20	Y20	Z20	X21	Y21	Z21	X22	Y22	Z22	X23	Y23	Z23	X24	Y24	Z24	X25	Y25	Z25	X26	Y26	Z26	X27	Y27	Z27	X28	Y28	Z28	X29	Y29	Z29	X30	Y30	Z30	X31	Y31	Z31	X32	Y32	Z32	X33	Y33	Z33	X34	Y34	Z34	X35	Y35	Z35	X36	Y36	Z36	X37	Y37	Z37	X38	Y38	Z38	X39	Y39	Z39	X40	Y40	Z40	X41	Y41	Z41
																																																																																																																												
180	1.79	614.11115	1756.79602	1447.8031	630.99908	1740.40942	1590.01831	504.93256	1653.07324	1450.06116	509.29282	1632.33923	1591.245	475.05719	1527.45068	1524.1001	416.29715	1256.00964	1538.47266	613.27313	1457.5929	1501.74475	663.06226	1283.9552	1514.85266	422.78629	1361.70386	1601.42542	531.25464	1494.62134	1338.16431	473.62646	1302.85559	1261.60303	439.20038	1165.75818	1250.86914	423.24469	1033.85779	1238.07874	461.07553	900.83228	1262.56311	411.81433	911.10748	1236.17688	419.95096	845.23181	1230.29199	576.46875	1502.87793	1699.42505	573.3963	1317.99207	1801.88489	605.83813	1173.35266	1825.45703	664.70123	1067.01563	1836.38171	741.08209	959.05469	1806.41357	701.19061	941.98187	1843.51514	755.72516	894.93719	1841.45947	645.23743	994.35016	1394.50952	651.83716	979.13153	1652.57483	437.17389	1031.97327	1479.63953	433.34512	1033.39709	1594.01709	650.55261	691.8009	1327.47559	688.11285	497.38162	1355.59546	654.96826	306.92923	1367.96045	691.94507	85.68597	1393.55835	676.89258	55.93099	1453.80725	836.88837	64.17635	1342.83264	554.1156	673.8313	1706.57751	528.04413	464.94266	1664.68433	465.08093	286.80023	1671.49329	424.8862	97.00703	1631.71118	383.07239	44.64761	1577.73254	572.76697	38.38181	1645.34827	507.48587	1796.8623	1546.3761	2845.0542	1033.7821	-3360.30591
181	1.8	623.26239	1755.49133	1445.84802	640.72302	1739.53821	1588.01941	514.14832	1651.79395	1448.79382	519.15582	1631.29761	1589.95154	484.60638	1526.53796	1522.97607	425.3226	1255.2345	1537.45251	622.7525	1456.42505	1500.427	672.34894	1282.7384	1513.96948	432.15353	1361.05994	1600.55078	540.28076	1493.26013	1337.07666	480.31961	1302.12512	1260.78455	445.12311	1165.37512	1250.47754	427.87952	1033.90173	1237.9397	464.38834	900.28912	1261.04065	414.76147	911.06763	1235.68201	422.32428	845.18329	1229.59265	586.55786	1502.08105	1698.21082	584.86743	1317.42285	1800.90955	618.59637	1173.12671	1824.8075	678.30762	1067.16479	1835.13477	755.50037	960.00085	1804.97168	716.12799	942.69073	1842.53381	771.08746	896.14227	1840.02356	654.60864	993.27386	1393.84595	660.37421	978.53882	1652.09851	446.55499	1030.62988	1478.66504	441.84717	1032.18433	1592.7749	659.44055	690.62769	1326.79041	698.16003	495.87354	1355.63806	673.30524	303.83145	1366.50623	720.24945	83.94118	1390.4624	706.15247	53.34534	1450.53113	866.40417	69.1196	1340.3219	560.47974	673.3913	1706.33276	532.32336	464.45761	1664.26123	467.34561	287.10071	1671.19165	425.44327	97.59843	1631.35388	383.40927	45.37455	1577.10474	572.85315	38.33383	1645.55151	517.04858	1795.85974	1545.00732	2845.08154	1034.01233	-3360.29883
182	1.81	632.39502	1754.27014	1443.78052	650.41278	1738.59888	1585.90015	523.4444	1650.38757	1447.36877	529.00415	1630.18909	1588.55981	494.12183	1525.46326	1521.6969	434.32889	1254.19421	1536.16919	632.26147	1455.16748	1499.12683	681.62012	1281.45679	1512.90759	441.642	1360.54297	1599.78748	549.30945	1491.80054	1335.70886	488.54694	1301.19922	1260.27966	451.29288	1164.88989	1250.03198	432.37158	1033.59521	1237.42004	467.99997	899.56812	1259.65613	418.13791	910.99487	1235.08582	424.88077	845.00647	1228.69519	596.35565	1501.23303	1696.80774	596.37555	1316.84094	1799.90393	631.40454	1172.9635	1824.1676	691.90643	1067.27979	1833.97986	769.76007	960.73969	1803.43665	730.95905	943.23187	1841.49304	786.20227	897.08289	1838.54639	664.05121	992.0434	1393.11377	668.97272	977.78119	1651.51965	455.50836	1029.67834	1477.61487	450.67059	1031.17786	1591.75659	668.13855	689.29059	1325.84961	708.034	494.30939	1355.5647	690.95587	301.16815	1365.19067	747.59088	83.0442	1387.3999	734.50812	51.28648	1447.21082	894.59369	74.57769	1337.71362	566.71301	672.82629	1705.84277	536.59521	464.08441	1663.80212	469.65936	287.45831	1670.73608	425.76849	97.98096	1630.72144	383.67813	46.30494	1576.90784	572.9444	38.29687	1645.61365	526.40405	1794.39526	1543.04712	2845.83545	1033.80176	-3357.27344
183	1.82	641.49597	1753.03271	1441.70435	660.07977	1737.58813	1583.72693	532.84015	1648.86755	1445.81079	538.87366	1628.98584	1587.07263	503.88837	1524.224	1520.13721	443.67981	1253.35376	1535.02673	641.7467	1453.91699	1497.65198	690.96228	1280.1521	1511.82214	450.97296	1359.57947	1598.55566	558.56012	1490.39746	1334.33228	495.75873	1300.46313	1258.99951	457.68942	1164.27307	1249.23438	437.62222	1033.20642	1236.50244	472.10309	898.89911	1258.12524	421.96558	910.80682	1234.43152	427.83548	844.72614	1227.74365	606.18066	1500.22876	1695.36536	607.53259	1315.81726	1798.3999	643.84222	1172.2489	1822.90454	705.56213	1067.50464	1832.96667	783.81915	961.28192	1801.81067	745.46631	943.64893	1840.23767	800.99298	897.73132	1836.86462	673.67096	990.79553	1392.45569	677.79401	976.86694	1650.92773	465.11441	1028.19104	1476.34998	459.49588	1030.00171	1590.32874	676.66351	687.83405	1324.65662	717.78314	492.70636	1355.27417	708.07446	298.80322	1363.87573	773.69055	82.58407	1384.35571	761.74481	50.28782	1443.78564	921.45251	80.40274	1335.271	572.92175	672.19214	1705.245	540.85986	463.49237	1663.12073	471.91025	287.79547	1670.23376	426.36481	98.83476	1630.53552	384.10074	46.96591	1576.24365	573.04419	38.31227	1645.81299	535.80811	1793.26978	1541.26807	2845.13452	1033.81091	-3360.32593
184	1.83	650.53192	1751.70447	1439.44519	669.72711	1736.56238	1581.43713	541.9519	1647.26379	1444.09705	548.74976	1627.71729	1585.46265	513.30951	1523.24731	1518.82849	452.95697	1252.31787	1533.71472	651.23364	1452.56299	1496.03833	700.34265	1278.8186	1510.55591	460.25687	1358.3988	1596.88928	568.07874	1488.94897	1332.99561	504.07779	1299.35242	1258.24207	464.5975	1163.64148	1248.78967	443.06003	1032.78345	1235.9762	476.33246	898.0318	1256.82605	426.15747	910.5108	1233.69861	431.3241	844.50836	1226.80908	615.90045	1499.10022	1693.81555	618.7793	1314.93298	1797.11572	656.46893	1171.81372	1821.86511	718.71149	1067.1333	1831.22485	797.60846	961.61053	1800.02637	759.60364	943.61932	1838.71997	815.53882	898.44928	1835.25586	683.42987	989.4798	1391.72009	686.6723	975.82855	1650.276	474.67838	1027.08105	1475.02686	468.49963	1028.82898	1588.77979	685.13617	686.20764	1323.48572	727.55609	491.05148	1354.79504	724.59619	296.86572	1362.59521	798.78394	82.95159	1381.37061	787.8338	49.74586	1440.53271	946.91278	86.23218	1332.96399	579.07867	671.68231	1704.60034	545.22089	463.15298	1662.68384	474.26465	288.20898	1669.64453	426.99255	99.74132	1630.23499	385.11877	47.43295	1576.02698	573.1225	38.2469	1645.9447	545.21637	1791.82373	1539.4259	2845.10034	1033.80969	-3360.44312
185	1.84	659.53271	1750.35364	1437.11572	679.35413	1735.51147	1579.09546	551.16815	1645.75354	1442.45325	558.65033	1626.45068	1583.82373	522.81842	1522.09277	1517.25037	462.33051	1251.19885	1532.24158	660.76111	1451.21692	1494.42859	709.79181	1277.47803	1509.22058	469.70056	1357.45068	1595.62817	577.29736	1487.40247	1331.24597	512.6123	1298.05725	1257.13074	471.80347	1162.80957	1247.88867	448.52908	1032.31641	1234.9342	481.06989	897.13513	1255.47559	430.77625	910.21002	1232.85913	435.00452	844.08466	1225.81152	625.49695	1497.8866	1692.1825	629.82312	1313.80872	1795.43994	668.8045	1171.07007	1820.40747	731.82397	1066.89429	1829.56982	811.12372	961.84216	1798.1626	773.60205	943.80188	1837.25732	829.79443	898.90039	1833.51428	693.3363	988.1059	1390.94055	695.72772	974.61304	1649.62061	484.26443	1025.70654	1473.41565	477.67587	1027.70374	1587.07654	693.57312	684.55804	1322.10925	737.26605	489.44299	1354.229	740.6568	295.2572	1361.13501	822.75775	83.8595	1378.65784	812.62415	49.75369	1437.46631	970.82874	91.84323	1330.71106	585.07922	671.00214	1703.70557	549.74292	463.0874	1662.40552	476.57224	288.85956	1669.29541	427.48566	100.53606	1629.85339	384.83658	48.6262	1574.82312	573.2688	38.16953	1645.93713	554.56708	1790.43396	1537.51147	2845.10547	1033.93506	-3360.31763
